<svg width="512" height="512" viewBox="0 0 165.161 165.161" xmlns="http://www.w3.org/2000/svg">
  <path style="fill:#2b0000;stroke:none;stroke-width:1" d="m37.184 57.25-17.968 6.434s-11.104 12.38-5.792 25.96c5.312 13.58 7.468 15.763 19.271 20.322 11.803 4.56 18.287 1.177 27.739-10.036 9.017-10.696 10.599-25.672-1.664-35.817-9.371-7.752-21.586-6.863-21.586-6.863z"/>
  <ellipse style="fill:#fff;fill-opacity:1;fill-rule:nonzero;stroke:#000;stroke-width:1.3913;stroke-opacity:1" cx="46.197" cy="75.134" rx="4.465" ry="4.152"/>
  <path style="fill:#2b0000;stroke:none;stroke-width:1" d="m27.648 106.19.226 21.217-24.066 3.838-.162 27.28 82.01.862 5.595-8.75.634-18.492-39.5-5.065-.479-22.447Z"/>
  <path style="fill:#2b0000;stroke:none;stroke-width:1" d="m90.726 131.985 9.599 3.377 11.173-7.023 5.39-2.361 10.08-.607 9.66 1.266 9.755 3.056 6.274 5.364 4.363 3.13-3.549-9.929-6.87-17.623-2.148-25.566-2.739-.944-4.87-5.737.523-6.021 4.707-5.819 7.806-.652 7.791 2.321 2.123 6.03-1.261 9.745-2.537 2.035 4.606 17.445-.078 53.183-7.793 1.108-14.973 1.691-16.77-1.75-10.355-2.405-10.818-5.291-9.617.724z"/>
  <ellipse style="fill:#2b0000;stroke:none;stroke-width:1" cx="10.044" cy="11.166" rx="3.847" ry="3.793"/>
  <ellipse style="fill:#2b0000;stroke:none;stroke-width:1" cx="18.794" cy="20.273" rx="3.847" ry="3.793"/>
  <ellipse style="fill:#2b0000;stroke:none;stroke-width:1" cx="29.529" cy="27.162" rx="3.847" ry="3.793"/>
  <ellipse style="fill:#2b0000;stroke:none;stroke-width:1" cx="55.629" cy="13.612" rx="3.847" ry="3.793"/>
  <ellipse style="fill:#2b0000;stroke:none;stroke-width:1" cx="69.513" cy="11.858" rx="3.847" ry="3.793"/>
  <ellipse style="fill:#2b0000;stroke:none;stroke-width:1" cx="82.736" cy="16.411" rx="3.847" ry="3.793"/>
  <ellipse style="fill:#2b0000;stroke:none;stroke-width:1" cx="93.721" cy="24.551" rx="3.847" ry="3.793"/>
  <ellipse style="fill:#2b0000;stroke:none;stroke-width:1" cx="106.984" cy="29.831" rx="3.847" ry="3.793"/>
  <ellipse style="fill:#2b0000;stroke:none;stroke-width:1" cx="120.163" cy="26.146" rx="3.847" ry="3.793"/>
  <ellipse style="fill:#2b0000;stroke:none;stroke-width:1" cx="128.712" cy="16.418" rx="3.847" ry="3.793"/>
  <ellipse style="fill:#2b0000;stroke:none;stroke-width:1" cx="140.458" cy="12.094" rx="3.847" ry="3.793"/>
  <ellipse style="fill:#2b0000;stroke:none;stroke-width:1" cx="154.82" cy="15.819" rx="3.847" ry="3.793"/>
  <ellipse style="fill:#fff;fill-opacity:1;fill-rule:nonzero;stroke:#000;stroke-width:1.2785;stroke-opacity:1" cx="27.498" cy="75.75" rx="4.173" ry="3.752"/>
  <path style="fill:#fff;fill-opacity:1;fill-rule:nonzero;stroke:#000;stroke-width:1;stroke-opacity:1" d="M21.602 89.637s-1.202 5.437 5.136 6.434c6.337.996 9.414 2.07 15.589.996 6.174-1.074 10.176-.934 13.788-5.315 3.611-4.382 4.476-7.38-2.164-7.404-6.639-.024-6.052 4.125-12.25 4.479-6.198.354-8.754 1.313-12.561-1.785-3.808-3.098-7.538 2.595-7.538 2.595z"/>
  <ellipse style="fill:#2b0000;stroke:none;stroke-width:1" cx="44.076" cy="24.29" rx="3.847" ry="3.793"/>
</svg>
